<?xml version="1.0" encoding="UTF-8" standalone="no"?>
<!-- Created with Inkscape (http://www.inkscape.org/) -->

<svg
   xmlns:dc="http://purl.org/dc/elements/1.1/"
   xmlns:cc="http://creativecommons.org/ns#"
   xmlns:rdf="http://www.w3.org/1999/02/22-rdf-syntax-ns#"
   xmlns:svg="http://www.w3.org/2000/svg"
   xmlns="http://www.w3.org/2000/svg"
   xmlns:sodipodi="http://sodipodi.sourceforge.net/DTD/sodipodi-0.dtd"
   xmlns:inkscape="http://www.inkscape.org/namespaces/inkscape"
   width="169.60893mm"
   height="130.61243mm"
   viewBox="0 0 600.97653 462.79994"
   id="svg2"
   version="1.1"
   inkscape:version="0.91 r13725"
   sodipodi:docname="tdd-cycle.svg">
  <defs
     id="defs4" />
  <sodipodi:namedview
     id="base"
     pagecolor="#ffffff"
     bordercolor="#666666"
     borderopacity="1.0"
     inkscape:pageopacity="0.0"
     inkscape:pageshadow="2"
     inkscape:zoom="0.7"
     inkscape:cx="-335.90408"
     inkscape:cy="330.84434"
     inkscape:document-units="px"
     inkscape:current-layer="g4319"
     showgrid="true"
     inkscape:window-width="1920"
     inkscape:window-height="1017"
     inkscape:window-x="0"
     inkscape:window-y="0"
     inkscape:window-maximized="1"
     inkscape:snap-text-baseline="true"
     inkscape:snap-others="true"
     inkscape:snap-nodes="true"
     inkscape:snap-global="true"
     inkscape:snap-intersection-paths="true"
     inkscape:snap-grids="false"
     showborder="true"
     inkscape:showpageshadow="true"
     fit-margin-top="0"
     fit-margin-left="0"
     fit-margin-right="0"
     fit-margin-bottom="0">
    <inkscape:grid
       type="xygrid"
       id="grid4136"
       units="mm"
       spacingx="3.5433071"
       spacingy="3.5433072"
       originx="-69.891842"
       originy="-423.19686" />
  </sodipodi:namedview>
  <metadata
     id="metadata7">
    <rdf:RDF>
      <cc:Work
         rdf:about="">
        <dc:format>image/svg+xml</dc:format>
        <dc:type
           rdf:resource="http://purl.org/dc/dcmitype/StillImage" />
        <dc:title />
      </cc:Work>
    </rdf:RDF>
  </metadata>
  <g
     inkscape:label="Ebene 1"
     inkscape:groupmode="layer"
     id="layer1"
     transform="translate(-69.891846,-166.3654)">
    <path
       style="opacity:1;fill:none;fill-opacity:1;fill-rule:nonzero;stroke:#000000;stroke-width:4;stroke-linecap:butt;stroke-linejoin:miter;stroke-miterlimit:4;stroke-dasharray:none;stroke-dashoffset:0;stroke-opacity:1"
       d="m 372.04724,272.83464 c 38.01093,0 73.22599,11.97055 102.08102,32.34748 m 0,0 c 36.78242,25.97512 63.23016,65.61012 71.96055,111.52232 m 0,0 c 2.05064,10.78409 3.12379,21.9145 3.12379,33.29556 m -67.60165,139.23356 c -30.14877,23.75699 -68.20089,37.9318 -109.56371,37.9318 -42.2786,0 -81.09828,-14.80942 -111.55454,-39.52378 M 197.86913,417.43079 c 8.63907,-46.4927 35.43403,-86.60669 72.75158,-112.70865"
       id="path4331"
       inkscape:connector-curvature="0"
       sodipodi:nodetypes="cccccccsccc" />
    <circle
       style="opacity:1;fill:#ffffff;fill-opacity:1;fill-rule:nonzero;stroke:#000000;stroke-width:2;stroke-linecap:butt;stroke-linejoin:miter;stroke-miterlimit:4;stroke-dasharray:none;stroke-dashoffset:0;stroke-opacity:1"
       id="path4161"
       cx="372.32422"
       cy="269.69559"
       r="0" />
    <g
       id="g4313"
       transform="translate(21.858949,0)">
      <circle
         r="106.29921"
         cy="273.66461"
         cx="350.41071"
         id="path4161-6-7-0"
         style="opacity:1;fill:#e9a89d;fill-opacity:1;fill-rule:nonzero;stroke:#000000;stroke-width:2;stroke-linecap:butt;stroke-linejoin:miter;stroke-miterlimit:4;stroke-dasharray:none;stroke-dashoffset:0;stroke-opacity:1" />
      <g
         style="font-style:normal;font-variant:normal;font-weight:500;font-stretch:normal;font-size:25px;line-height:125%;font-family:'URW Palladio L';-inkscape-font-specification:'URW Palladio L Medium';letter-spacing:0px;word-spacing:0px;fill:#000000;fill-opacity:1;stroke:none;stroke-width:1px;stroke-linecap:butt;stroke-linejoin:miter;stroke-opacity:1"
         id="text4163">
        <path
           d="m 289.04108,259.40973 2.15332,0 0,17.28516 3.2373,0 0,-22.0459 -1.94824,0 q -0.24902,0.55664 -0.71777,1.14257 -1.18653,1.25977 -2.72461,1.55274 l 0,2.06543 z"
           style="font-style:normal;font-variant:normal;font-weight:normal;font-stretch:normal;font-size:30px;font-family:'League Gothic';-inkscape-font-specification:'League Gothic';text-align:center;text-anchor:middle"
           id="path4152" />
        <path
           d="m 296.42389,276.69489 3.14941,0 0,-3.3252 -3.14941,0 0,3.3252 z"
           style="font-style:normal;font-variant:normal;font-weight:normal;font-stretch:normal;font-size:30px;font-family:'League Gothic';-inkscape-font-specification:'League Gothic';text-align:center;text-anchor:middle"
           id="path4154" />
        <path
           d="m 306.1651,276.69489 3.2373,0 0,-9.59473 3.00293,0 0,-3.33985 -3.00293,0 0,-5.78613 4.46778,0 0,-3.32519 -7.70508,0 0,22.0459 z"
           style="font-style:normal;font-variant:normal;font-weight:normal;font-stretch:normal;font-size:30px;font-family:'League Gothic';-inkscape-font-specification:'League Gothic';text-align:center;text-anchor:middle"
           id="path4156" />
        <path
           d="m 314.28033,276.69489 3.16407,0 0.58593,-4.49708 3.12012,0 0.60059,4.49708 3.14941,0 -3.32519,-22.0459 -3.95508,0 -3.33985,22.0459 z m 4.20411,-7.92481 0.9375,-6.95801 0.0879,-0.57129 0.17578,0 0.0879,0.57129 0.9375,6.95801 -2.22656,0 z"
           style="font-style:normal;font-variant:normal;font-weight:normal;font-stretch:normal;font-size:30px;font-family:'League Gothic';-inkscape-font-specification:'League Gothic';text-align:center;text-anchor:middle"
           id="path4158" />
        <path
           d="m 326.37994,276.69489 3.23731,0 0,-22.0459 -3.23731,0 0,22.0459 z"
           style="font-style:normal;font-variant:normal;font-weight:normal;font-stretch:normal;font-size:30px;font-family:'League Gothic';-inkscape-font-specification:'League Gothic';text-align:center;text-anchor:middle"
           id="path4160" />
        <path
           d="m 332.00494,276.69489 7.5293,0 0,-3.00293 -4.29199,0 0,-19.04297 -3.23731,0 0,22.0459 z"
           style="font-style:normal;font-variant:normal;font-weight:normal;font-stretch:normal;font-size:30px;font-family:'League Gothic';-inkscape-font-specification:'League Gothic';text-align:center;text-anchor:middle"
           id="path4162" />
        <path
           d="m 340.8526,276.69489 3.2373,0 0,-22.0459 -3.2373,0 0,22.0459 z"
           style="font-style:normal;font-variant:normal;font-weight:normal;font-stretch:normal;font-size:30px;font-family:'League Gothic';-inkscape-font-specification:'League Gothic';text-align:center;text-anchor:middle"
           id="path4164" />
        <path
           d="m 346.4776,276.69489 2.97363,0 0,-12.50977 0.17578,0 0.26368,1.02539 3.14941,11.48438 2.88574,0 0,-22.0459 -2.97363,0 0,12.50976 -0.17578,0 -0.26367,-1.02539 -3.14942,-11.48437 -2.88574,0 0,22.0459 z"
           style="font-style:normal;font-variant:normal;font-weight:normal;font-stretch:normal;font-size:30px;font-family:'League Gothic';-inkscape-font-specification:'League Gothic';text-align:center;text-anchor:middle"
           id="path4166" />
        <path
           d="m 358.10846,272.16852 q 0,0.13183 0,0.26367 0,1.20117 0.35156,2.13867 0.38086,0.9668 1.14258,1.61133 0.83496,0.74707 2.31445,0.74707 1.4795,0 2.51953,-1.28906 l 0.38086,1.05469 1.91895,0 0,-10.98633 -4.52637,0 0,2.73925 1.28906,0 0,3.98438 q 0,0.52734 -0.11718,0.80566 -0.20508,0.82032 -0.9668,0.82032 -0.38086,0 -0.62988,-0.24903 -0.43946,-0.51269 -0.43946,-1.37695 l 0,-13.25684 q 0,-0.49804 0.11719,-0.80566 0.24903,-0.82031 0.95215,-0.82031 0.4248,0 0.67383,0.24902 0.41015,0.5127 0.41015,1.37695 l 0,3.38379 3.23731,0 0,-3.38379 q -0.0439,-1.3916 -0.52734,-2.37304 -0.42481,-0.98145 -1.30372,-1.64063 -1.01074,-0.76172 -2.49023,-0.76172 -1.50879,0 -2.51953,0.76172 -0.80567,0.61524 -1.25977,1.64063 -0.4834,0.98144 -0.52734,2.37304 l 0,12.99317 z"
           style="font-style:normal;font-variant:normal;font-weight:normal;font-stretch:normal;font-size:30px;font-family:'League Gothic';-inkscape-font-specification:'League Gothic';text-align:center;text-anchor:middle"
           id="path4168" />
        <path
           d="m 372.58112,257.97418 3.06152,0 0,18.72071 3.2373,0 0,-18.72071 3.06153,0 0,-3.32519 -9.36035,0 0,3.32519 z"
           style="font-style:normal;font-variant:normal;font-weight:normal;font-stretch:normal;font-size:30px;font-family:'League Gothic';-inkscape-font-specification:'League Gothic';text-align:center;text-anchor:middle"
           id="path4170" />
        <path
           d="m 383.21588,276.69489 7.41211,0 0,-3.3252 -4.1748,0 0,-6.06445 3.00293,0 0,-3.54493 -3.00293,0 0,-5.78613 4.1748,0 0,-3.32519 -7.41211,0 0,22.0459 z"
           style="font-style:normal;font-variant:normal;font-weight:normal;font-stretch:normal;font-size:30px;font-family:'League Gothic';-inkscape-font-specification:'League Gothic';text-align:center;text-anchor:middle"
           id="path4172" />
        <path
           d="m 391.75592,270.51324 q 0,2.97364 0.80566,4.43848 1.08399,1.97754 3.89649,1.97754 2.44629,0 3.57422,-1.66992 0.9375,-1.3916 0.9375,-3.86719 0,-1.56738 -0.9668,-3.45703 -0.60059,-1.17188 -2.06543,-3.35449 -1.37695,-2.00684 -1.74316,-2.65137 -0.80567,-1.3916 -0.80567,-2.3584 0,-2.15332 1.09864,-2.19726 0.70312,0 1.05468,1.02539 0.24903,0.76172 0.24903,2.15332 l 3.17871,-0.29297 q 0,-2.34375 -0.82031,-3.91113 -1.04004,-1.94825 -3.60352,-1.94825 -0.0586,0 -0.11719,0 -2.09472,0.0439 -3.2666,1.68457 -0.95215,1.37696 -0.95215,3.48633 0,0.89356 0.26367,1.75781 0.49805,1.71387 1.59668,3.42774 1.08399,1.68457 2.03614,3.03223 0.43945,0.67382 0.83496,1.31835 0.84961,1.52344 0.84961,2.43165 0,2.43164 -1.33301,2.43164 -0.92285,0 -1.25977,-1.20118 -0.26367,-0.77636 -0.26367,-2.54882 l -3.17871,0.29296 z"
           style="font-style:normal;font-variant:normal;font-weight:normal;font-stretch:normal;font-size:30px;font-family:'League Gothic';-inkscape-font-specification:'League Gothic';text-align:center;text-anchor:middle"
           id="path4174" />
        <path
           d="m 401.58502,257.97418 3.06153,0 0,18.72071 3.2373,0 0,-18.72071 3.06152,0 0,-3.32519 -9.36035,0 0,3.32519 z"
           style="font-style:normal;font-variant:normal;font-weight:normal;font-stretch:normal;font-size:30px;font-family:'League Gothic';-inkscape-font-specification:'League Gothic';text-align:center;text-anchor:middle"
           id="path4176" />
      </g>
    </g>
    <g
       id="g4326"
       transform="translate(0,-4.4849854)">
      <circle
         r="106.29921"
         cy="526.18109"
         cx="177.19106"
         id="path4161-6"
         style="opacity:1;fill:#ffffff;fill-opacity:1;fill-rule:nonzero;stroke:#000000;stroke-width:2;stroke-linecap:butt;stroke-linejoin:miter;stroke-miterlimit:4;stroke-dasharray:none;stroke-dashoffset:0;stroke-opacity:1" />
      <g
         style="font-style:normal;font-variant:normal;font-weight:500;font-stretch:normal;font-size:25px;line-height:125%;font-family:'URW Palladio L';-inkscape-font-specification:'URW Palladio L Medium';letter-spacing:0px;word-spacing:0px;fill:#000000;fill-opacity:1;stroke:none;stroke-width:1px;stroke-linecap:butt;stroke-linejoin:miter;stroke-opacity:1"
         id="text4163-7">
        <path
           d="m 113.22865,515.52289 3.17871,0 q 0,-2.16797 0.20508,-3.00293 0.14649,-0.74707 0.76172,-0.74707 0.70313,0 0.89356,0.95215 0.11718,0.57129 0.11718,1.88965 l 0,1.77246 q 0,0.76171 -0.20508,1.17187 -0.19042,0.46875 -0.71777,0.70313 -0.52734,0.21972 -1.53808,0.29296 l 0,2.69532 0.27832,0 q 0.95214,0.0439 1.58203,0.39551 0.9082,0.60058 0.9082,2.2705 -0.0293,0.57129 -0.0293,1.88965 0,1.31836 -0.11718,1.86035 -0.20508,0.9375 -0.90821,0.9375 -0.30761,0 -0.51269,-0.16113 -0.19043,-0.17578 -0.32227,-0.61523 -0.27832,-0.90821 -0.27832,-2.97364 l -3.17871,0 q 0,2.78321 0.62988,4.2334 0.9961,2.3584 3.66211,2.3584 1.04004,0 1.74317,-0.38086 1.27441,-0.70312 1.88965,-2.34375 0.48339,-1.40625 0.54199,-2.51953 0.0293,-0.33691 0.0293,-0.62988 0,-2.18262 -0.3955,-3.69141 -0.39551,-1.52344 -1.46485,-2.37305 l 0.0293,-0.0293 q 0.79102,-0.79102 1.17187,-2.12403 0.38086,-1.333 0.38086,-3.6914 0,-1.40625 -0.57129,-2.57813 -1.05468,-2.16797 -3.61816,-2.16797 -2.60742,0 -3.57422,2.34375 -0.57129,1.4209 -0.57129,4.2627 z"
           style="font-style:normal;font-variant:normal;font-weight:normal;font-stretch:normal;font-size:30px;font-family:'League Gothic';-inkscape-font-specification:'League Gothic';text-align:center;text-anchor:middle"
           id="path4179" />
        <path
           d="m 123.42397,531.21136 3.14941,0 0,-3.32519 -3.14941,0 0,3.32519 z"
           style="font-style:normal;font-variant:normal;font-weight:normal;font-stretch:normal;font-size:30px;font-family:'League Gothic';-inkscape-font-specification:'League Gothic';text-align:center;text-anchor:middle"
           id="path4181" />
        <path
           d="m 133.16518,531.21136 3.2373,0 0,-9.30175 0.86426,0 1.68457,9.30175 3.2373,0 -2.06543,-10.67871 q 0.89356,-0.60058 1.34766,-1.93359 0.4541,-1.34766 0.4541,-3.07617 0,-3.17871 -1.33301,-4.76074 -1.333,-1.59668 -4.18945,-1.59668 l -3.2373,0 0,22.04589 z m 3.2373,-12.30468 0,-6.53321 q 1.02539,0 1.53809,0.45411 0.86425,0.76171 0.86425,2.8125 0,2.03613 -0.86425,2.79785 -0.52735,0.46875 -1.53809,0.46875 z"
           style="font-style:normal;font-variant:normal;font-weight:normal;font-stretch:normal;font-size:30px;font-family:'League Gothic';-inkscape-font-specification:'League Gothic';text-align:center;text-anchor:middle"
           id="path4183" />
        <path
           d="m 144.00502,531.21136 7.41211,0 0,-3.32519 -4.17481,0 0,-6.06445 3.00293,0 0,-3.54493 -3.00293,0 0,-5.78613 4.17481,0 0,-3.32519 -7.41211,0 0,22.04589 z"
           style="font-style:normal;font-variant:normal;font-weight:normal;font-stretch:normal;font-size:30px;font-family:'League Gothic';-inkscape-font-specification:'League Gothic';text-align:center;text-anchor:middle"
           id="path4185" />
        <path
           d="m 153.20424,531.21136 3.2373,0 0,-9.59472 3.00293,0 0,-3.33985 -3.00293,0 0,-5.78613 4.46778,0 0,-3.32519 -7.70508,0 0,22.04589 z"
           style="font-style:normal;font-variant:normal;font-weight:normal;font-stretch:normal;font-size:30px;font-family:'League Gothic';-inkscape-font-specification:'League Gothic';text-align:center;text-anchor:middle"
           id="path4187" />
        <path
           d="m 161.31947,531.21136 3.16407,0 0.58593,-4.49707 3.12012,0 0.60059,4.49707 3.14941,0 -3.32519,-22.04589 -3.95508,0 -3.33985,22.04589 z m 4.2041,-7.9248 0.9375,-6.95801 0.0879,-0.57129 0.17578,0 0.0879,0.57129 0.9375,6.95801 -2.22657,0 z"
           style="font-style:normal;font-variant:normal;font-weight:normal;font-stretch:normal;font-size:30px;font-family:'League Gothic';-inkscape-font-specification:'League Gothic';text-align:center;text-anchor:middle"
           id="path4189" />
        <path
           d="m 173.214,526.685 q 0.0439,1.4209 0.52735,2.40234 0.43945,0.98145 1.25976,1.61133 0.92286,0.74707 2.51954,0.74707 1.56738,0 2.49023,-0.74707 0.89355,-0.67383 1.30371,-1.61133 0.4834,-0.98144 0.52734,-2.40234 l 0,-3.03223 -3.01757,0 0,3.03223 q 0,0.49804 -0.13184,0.80566 -0.26367,0.80567 -1.09863,0.80567 -0.39551,0 -0.62989,-0.23438 -0.46875,-0.54199 -0.51269,-1.37695 l 0,-12.99317 q 0.0586,-0.57129 0.14648,-0.80566 0.30762,-0.82031 0.9961,-0.82031 0.49804,0 0.74707,0.24902 0.4834,0.52734 0.4834,1.37695 l 0,3.03223 3.01757,0 0,-3.03223 q -0.0439,-1.3916 -0.52734,-2.37304 -0.4248,-0.98145 -1.30371,-1.64063 -1.01074,-0.76172 -2.49023,-0.76172 -1.50879,0 -2.51954,0.76172 -0.80566,0.61524 -1.25976,1.64063 -0.4834,0.98144 -0.52735,2.37304 l 0,12.99317 z"
           style="font-style:normal;font-variant:normal;font-weight:normal;font-stretch:normal;font-size:30px;font-family:'League Gothic';-inkscape-font-specification:'League Gothic';text-align:center;text-anchor:middle"
           id="path4191" />
        <path
           d="m 182.6476,512.49066 3.06152,0 0,18.7207 3.23731,0 0,-18.7207 3.06152,0 0,-3.32519 -9.36035,0 0,3.32519 z"
           style="font-style:normal;font-variant:normal;font-weight:normal;font-stretch:normal;font-size:30px;font-family:'League Gothic';-inkscape-font-specification:'League Gothic';text-align:center;text-anchor:middle"
           id="path4193" />
        <path
           d="m 193.07729,526.685 q 0.0439,1.4209 0.52734,2.40234 0.43945,0.98145 1.25977,1.61133 0.92285,0.74707 2.51953,0.74707 1.56738,0 2.49023,-0.74707 0.89356,-0.67383 1.30371,-1.61133 0.4834,-0.98144 0.52735,-2.40234 l 0,-12.99317 q -0.0439,-1.3916 -0.52735,-2.37304 -0.4248,-0.98145 -1.30371,-1.64063 -1.01074,-0.76172 -2.49023,-0.76172 -1.50879,0 -2.51953,0.76172 -0.80567,0.61524 -1.25977,1.64063 -0.4834,0.98144 -0.52734,2.37304 l 0,12.99317 z m 3.2373,0 0,-12.99317 q 0,-0.49804 0.11719,-0.80566 0.24902,-0.82031 0.95215,-0.82031 0.4248,0 0.67382,0.24902 0.41016,0.5127 0.41016,1.37695 l 0,12.99317 q 0,0.52734 -0.11719,0.80566 -0.20507,0.80567 -0.96679,0.80567 -0.39551,0 -0.62989,-0.23438 -0.43945,-0.51269 -0.43945,-1.37695 z"
           style="font-style:normal;font-variant:normal;font-weight:normal;font-stretch:normal;font-size:30px;font-family:'League Gothic';-inkscape-font-specification:'League Gothic';text-align:center;text-anchor:middle"
           id="path4195" />
        <path
           d="m 203.88783,531.21136 3.23731,0 0,-9.30175 0.86426,0 1.68457,9.30175 3.2373,0 -2.06543,-10.67871 q 0.89356,-0.60058 1.34766,-1.93359 0.4541,-1.34766 0.4541,-3.07617 0,-3.17871 -1.33301,-4.76074 -1.33301,-1.59668 -4.18945,-1.59668 l -3.23731,0 0,22.04589 z m 3.23731,-12.30468 0,-6.53321 q 1.02539,0 1.53808,0.45411 0.86426,0.76171 0.86426,2.8125 0,2.03613 -0.86426,2.79785 -0.52734,0.46875 -1.53808,0.46875 z"
           style="font-style:normal;font-variant:normal;font-weight:normal;font-stretch:normal;font-size:30px;font-family:'League Gothic';-inkscape-font-specification:'League Gothic';text-align:center;text-anchor:middle"
           id="path4197" />
        <path
           d="m 214.72768,531.21136 3.2373,0 0,-22.04589 -3.2373,0 0,22.04589 z"
           style="font-style:normal;font-variant:normal;font-weight:normal;font-stretch:normal;font-size:30px;font-family:'League Gothic';-inkscape-font-specification:'League Gothic';text-align:center;text-anchor:middle"
           id="path4199" />
        <path
           d="m 220.35268,531.21136 2.97363,0 0,-12.50976 0.17578,0 0.26367,1.02539 3.14942,11.48437 2.88574,0 0,-22.04589 -2.97363,0 0,12.50976 -0.17579,0 -0.26367,-1.02539 -3.14941,-11.48437 -2.88574,0 0,22.04589 z"
           style="font-style:normal;font-variant:normal;font-weight:normal;font-stretch:normal;font-size:30px;font-family:'League Gothic';-inkscape-font-specification:'League Gothic';text-align:center;text-anchor:middle"
           id="path4201" />
        <path
           d="m 231.98354,526.685 q 0,0.13183 0,0.26367 0,1.20117 0.35156,2.13867 0.38086,0.9668 1.14258,1.61133 0.83496,0.74707 2.31445,0.74707 1.47949,0 2.51953,-1.28906 l 0.38086,1.05468 1.91895,0 0,-10.98632 -4.52637,0 0,2.73925 1.28906,0 0,3.98438 q 0,0.52734 -0.11719,0.80566 -0.20507,0.82032 -0.96679,0.82032 -0.38086,0 -0.62989,-0.24903 -0.43945,-0.51269 -0.43945,-1.37695 l 0,-13.25684 q 0,-0.49804 0.11719,-0.80566 0.24902,-0.82031 0.95215,-0.82031 0.4248,0 0.67382,0.24902 0.41016,0.5127 0.41016,1.37695 l 0,3.38379 3.23731,0 0,-3.38379 q -0.0439,-1.3916 -0.52735,-2.37304 -0.4248,-0.98145 -1.30371,-1.64063 -1.01074,-0.76172 -2.49023,-0.76172 -1.50879,0 -2.51953,0.76172 -0.80567,0.61524 -1.25977,1.64063 -0.4834,0.98144 -0.52734,2.37304 l 0,12.99317 z"
           style="font-style:normal;font-variant:normal;font-weight:normal;font-stretch:normal;font-size:30px;font-family:'League Gothic';-inkscape-font-specification:'League Gothic';text-align:center;text-anchor:middle"
           id="path4203" />
      </g>
    </g>
    <circle
       style="opacity:1;fill:#ffffff;fill-opacity:1;fill-rule:nonzero;stroke:#000000;stroke-width:2;stroke-linecap:butt;stroke-linejoin:miter;stroke-miterlimit:4;stroke-dasharray:none;stroke-dashoffset:0;stroke-opacity:1"
       id="path4161-62"
       cx="545.2926"
       cy="526.18109"
       r="0" />
    <g
       id="g4319"
       transform="translate(18.276544,0)">
      <path
         style="opacity:1;fill:#b2fd91;fill-opacity:1;fill-rule:nonzero;stroke:#000000;stroke-width:2;stroke-linecap:butt;stroke-linejoin:miter;stroke-miterlimit:4;stroke-dasharray:none;stroke-dashoffset:0;stroke-opacity:1"
         d="M 651.59181,521.69611 A 106.29921,106.29921 0 0 1 545.2926,627.99532 106.29921,106.29921 0 0 1 438.99339,521.69611 106.29921,106.29921 0 0 1 545.2926,415.3969 106.29921,106.29921 0 0 1 651.59181,521.69611 Z"
         id="path4161-6-7"
         inkscape:connector-curvature="0" />
      <g
         style="font-style:normal;font-variant:normal;font-weight:500;font-stretch:normal;font-size:25px;line-height:125%;font-family:'URW Palladio L';-inkscape-font-specification:'URW Palladio L Medium';letter-spacing:0px;word-spacing:0px;fill:#000000;fill-opacity:1;stroke:none;stroke-width:1px;stroke-linecap:butt;stroke-linejoin:miter;stroke-opacity:1"
         id="text4163-9">
        <path
           d="m 497.09192,489.22638 8.78906,0 0,-3.20801 -5.12695,0 q 1.88965,-3.17871 3.17871,-6.18164 1.88965,-4.46777 1.88965,-7.41211 0,-2.54883 -0.89356,-3.89648 -1.08398,-1.59668 -3.42773,-1.59668 -2.43164,0 -3.47168,1.74316 -0.84961,1.4209 -0.84961,3.95508 l 0,1.53809 3.25195,0 0,-1.53809 q 0,-1.17188 0.20508,-1.88965 0.24902,-0.80566 0.86426,-0.80566 0.64453,0 0.9082,0.9082 0.17578,0.61523 0.17578,1.78711 -0.0439,1.75781 -0.92285,4.37988 -0.74707,2.21192 -1.86035,4.35059 -1.28906,2.49023 -2.70996,4.6582 l 0,3.20801 z"
           style="font-style:normal;font-variant:normal;font-weight:normal;font-stretch:normal;font-size:30px;line-height:125%;font-family:'League Gothic';-inkscape-font-specification:'League Gothic, Normal';text-align:center;writing-mode:lr-tb;text-anchor:middle"
           id="path4206" />
        <path
           d="m 507.78528,489.22638 3.14941,0 0,-3.3252 -3.14941,0 0,3.3252 z"
           style="font-style:normal;font-variant:normal;font-weight:normal;font-stretch:normal;font-size:30px;line-height:125%;font-family:'League Gothic';-inkscape-font-specification:'League Gothic, Normal';text-align:center;writing-mode:lr-tb;text-anchor:middle"
           id="path4208" />
        <path
           d="m 516.86731,483.04474 q 0,2.97363 0.80566,4.43848 1.08399,1.97753 3.89649,1.97753 2.44629,0 3.57422,-1.66992 0.9375,-1.3916 0.9375,-3.86718 0,-1.56739 -0.9668,-3.45704 -0.60059,-1.17187 -2.06543,-3.35449 -1.37695,-2.00683 -1.74316,-2.65137 -0.80567,-1.3916 -0.80567,-2.35839 0,-2.15332 1.09863,-2.19727 0.70313,0 1.05469,1.02539 0.24903,0.76172 0.24903,2.15332 l 3.17871,-0.29297 q 0,-2.34375 -0.82032,-3.91113 -1.04003,-1.94824 -3.60351,-1.94824 -0.0586,0 -0.11719,0 -2.09473,0.0439 -3.2666,1.68457 -0.95215,1.37695 -0.95215,3.48633 0,0.89355 0.26367,1.75781 0.49805,1.71387 1.59668,3.42773 1.08399,1.68457 2.03614,3.03223 0.43945,0.67383 0.83496,1.31836 0.84961,1.52344 0.84961,2.43164 0,2.43164 -1.33301,2.43164 -0.92285,0 -1.25977,-1.20117 -0.26367,-0.77637 -0.26367,-2.54883 l -3.17871,0.29297 z"
           style="font-style:normal;font-variant:normal;font-weight:normal;font-stretch:normal;font-size:30px;line-height:125%;font-family:'League Gothic';-inkscape-font-specification:'League Gothic, Normal';text-align:center;writing-mode:lr-tb;text-anchor:middle"
           id="path4210" />
        <path
           d="m 527.83899,489.22638 3.2373,0 0,-22.0459 -3.2373,0 0,22.0459 z"
           style="font-style:normal;font-variant:normal;font-weight:normal;font-stretch:normal;font-size:30px;line-height:125%;font-family:'League Gothic';-inkscape-font-specification:'League Gothic, Normal';text-align:center;writing-mode:lr-tb;text-anchor:middle"
           id="path4212" />
        <path
           d="m 533.46399,489.22638 3.00293,0 0,-14.79492 0.17578,0 0.11719,0.9375 2.08008,13.85742 1.37695,0 2.06543,-13.85742 0.11719,-0.9375 0.19043,0 0,14.79492 2.98828,0 0,-22.0459 -3.95508,0 -1.91895,10.07813 -0.14648,1.17187 -0.0586,0 -0.16114,-1.17187 -1.91894,-10.07813 -3.95508,0 0,22.0459 z"
           style="font-style:normal;font-variant:normal;font-weight:normal;font-stretch:normal;font-size:30px;line-height:125%;font-family:'League Gothic';-inkscape-font-specification:'League Gothic, Normal';text-align:center;writing-mode:lr-tb;text-anchor:middle"
           id="path4214" />
        <path
           d="m 547.99524,489.22638 3.2373,0 0,-8.81836 q 2.37305,0 3.89649,-1.43555 1.80176,-1.69922 1.80176,-5.20019 0,-3.51563 -1.80176,-5.21485 -1.4502,-1.37695 -3.89649,-1.37695 l -3.2373,0 0,22.0459 z m 3.2373,-12.11426 0,-6.63574 q 1.4502,0 1.97754,0.77637 0.4541,0.67382 0.4541,2.63672 0,1.93359 -0.4541,2.53418 -0.49804,0.68847 -1.97754,0.68847 z"
           style="font-style:normal;font-variant:normal;font-weight:normal;font-stretch:normal;font-size:30px;line-height:125%;font-family:'League Gothic';-inkscape-font-specification:'League Gothic, Normal';text-align:center;writing-mode:lr-tb;text-anchor:middle"
           id="path4216" />
        <path
           d="m 558.54211,489.22638 7.5293,0 0,-3.00293 -4.29199,0 0,-19.04297 -3.23731,0 0,22.0459 z"
           style="font-style:normal;font-variant:normal;font-weight:normal;font-stretch:normal;font-size:30px;line-height:125%;font-family:'League Gothic';-inkscape-font-specification:'League Gothic, Normal';text-align:center;writing-mode:lr-tb;text-anchor:middle"
           id="path4218" />
        <path
           d="m 567.38977,489.22638 7.41211,0 0,-3.3252 -4.1748,0 0,-6.06445 3.00292,0 0,-3.54492 -3.00292,0 0,-5.78613 4.1748,0 0,-3.3252 -7.41211,0 0,22.0459 z"
           style="font-style:normal;font-variant:normal;font-weight:normal;font-stretch:normal;font-size:30px;line-height:125%;font-family:'League Gothic';-inkscape-font-specification:'League Gothic, Normal';text-align:center;writing-mode:lr-tb;text-anchor:middle"
           id="path4220" />
        <path
           d="m 575.92981,483.04474 q 0,2.97363 0.80566,4.43848 1.08399,1.97753 3.89649,1.97753 2.44629,0 3.57422,-1.66992 0.9375,-1.3916 0.9375,-3.86718 0,-1.56739 -0.9668,-3.45704 -0.60059,-1.17187 -2.06543,-3.35449 -1.37695,-2.00683 -1.74316,-2.65137 -0.80567,-1.3916 -0.80567,-2.35839 0,-2.15332 1.09863,-2.19727 0.70313,0 1.05469,1.02539 0.24903,0.76172 0.24903,2.15332 l 3.17871,-0.29297 q 0,-2.34375 -0.82032,-3.91113 -1.04003,-1.94824 -3.60351,-1.94824 -0.0586,0 -0.11719,0 -2.09473,0.0439 -3.2666,1.68457 -0.95215,1.37695 -0.95215,3.48633 0,0.89355 0.26367,1.75781 0.49805,1.71387 1.59668,3.42773 1.08399,1.68457 2.03614,3.03223 0.43945,0.67383 0.83496,1.31836 0.84961,1.52344 0.84961,2.43164 0,2.43164 -1.33301,2.43164 -0.92285,0 -1.25977,-1.20117 -0.26367,-0.77637 -0.26367,-2.54883 l -3.17871,0.29297 z"
           style="font-style:normal;font-variant:normal;font-weight:normal;font-stretch:normal;font-size:30px;line-height:125%;font-family:'League Gothic';-inkscape-font-specification:'League Gothic, Normal';text-align:center;writing-mode:lr-tb;text-anchor:middle"
           id="path4222" />
        <path
           d="m 585.75891,470.50568 3.06152,0 0,18.7207 3.23731,0 0,-18.7207 3.06152,0 0,-3.3252 -9.36035,0 0,3.3252 z"
           style="font-style:normal;font-variant:normal;font-weight:normal;font-stretch:normal;font-size:30px;line-height:125%;font-family:'League Gothic';-inkscape-font-specification:'League Gothic, Normal';text-align:center;writing-mode:lr-tb;text-anchor:middle"
           id="path4224" />
        <path
           d="m 488.3175,522.20001 q 0.0439,1.4209 0.52735,2.40235 0.43945,0.98144 1.25976,1.61132 0.92286,0.74707 2.51954,0.74707 1.56738,0 2.49023,-0.74707 0.89355,-0.67382 1.30371,-1.61132 0.4834,-0.98145 0.52734,-2.40235 l 0,-3.03222 -3.01757,0 0,3.03222 q 0,0.49805 -0.13184,0.80567 -0.26367,0.80566 -1.09863,0.80566 -0.39551,0 -0.62989,-0.23437 -0.46875,-0.542 -0.51269,-1.37696 l 0,-12.99316 q 0.0586,-0.57129 0.14648,-0.80567 0.30762,-0.82031 0.9961,-0.82031 0.49804,0 0.74707,0.24903 0.4834,0.52734 0.4834,1.37695 l 0,3.03222 3.01757,0 0,-3.03222 q -0.0439,-1.3916 -0.52734,-2.37305 -0.4248,-0.98144 -1.30371,-1.64062 -1.01074,-0.76172 -2.49023,-0.76172 -1.50879,0 -2.51954,0.76172 -0.80566,0.61523 -1.25976,1.64062 -0.4834,0.98145 -0.52735,2.37305 l 0,12.99316 z"
           style="font-style:normal;font-variant:normal;font-weight:normal;font-stretch:normal;font-size:30px;line-height:125%;font-family:'League Gothic';-inkscape-font-specification:'League Gothic, Normal';text-align:center;writing-mode:lr-tb;text-anchor:middle"
           id="path4226" />
        <path
           d="m 498.6886,522.20001 q 0.0439,1.4209 0.52734,2.40235 0.43946,0.98144 1.25977,1.61132 0.92285,0.74707 2.51953,0.74707 1.56738,0 2.49023,-0.74707 0.89356,-0.67382 1.30371,-1.61132 0.4834,-0.98145 0.52735,-2.40235 l 0,-12.99316 q -0.0439,-1.3916 -0.52735,-2.37305 -0.4248,-0.98144 -1.30371,-1.64062 -1.01074,-0.76172 -2.49023,-0.76172 -1.50879,0 -2.51953,0.76172 -0.80567,0.61523 -1.25977,1.64062 -0.4834,0.98145 -0.52734,2.37305 l 0,12.99316 z m 3.2373,0 0,-12.99316 q 0,-0.49805 0.11719,-0.80567 0.24902,-0.82031 0.95215,-0.82031 0.4248,0 0.67383,0.24903 0.41015,0.51269 0.41015,1.37695 l 0,12.99316 q 0,0.52735 -0.11718,0.80567 -0.20508,0.80566 -0.9668,0.80566 -0.39551,0 -0.62988,-0.23437 -0.43946,-0.5127 -0.43946,-1.37696 z"
           style="font-style:normal;font-variant:normal;font-weight:normal;font-stretch:normal;font-size:30px;line-height:125%;font-family:'League Gothic';-inkscape-font-specification:'League Gothic, Normal';text-align:center;writing-mode:lr-tb;text-anchor:middle"
           id="path4228" />
        <path
           d="m 509.49915,526.72638 2.54882,0 q 2.28516,0 3.55957,-0.5127 1.28907,-0.52734 1.9336,-1.77246 0.58594,-1.17187 0.76172,-3.14941 0.19043,-1.97754 0.19043,-5.58106 0,-3.61816 -0.19043,-5.5957 -0.17578,-1.99219 -0.76172,-3.16406 -0.64453,-1.24512 -1.91895,-1.75781 -1.27441,-0.5127 -3.57422,-0.5127 l -2.54882,0 0,22.0459 z m 3.2373,-3.23731 0,-15.57128 q 0.92285,0 1.37695,0.21972 0.4541,0.21973 0.68848,0.95215 0.26367,0.99609 0.30762,2.34375 0.0293,1.05469 0.0293,4.24805 0,3.20801 -0.0293,4.26269 -0.0439,1.40625 -0.30762,2.34375 -0.23438,0.76172 -0.68848,0.98145 -0.4541,0.21972 -1.37695,0.21972 z"
           style="font-style:normal;font-variant:normal;font-weight:normal;font-stretch:normal;font-size:30px;line-height:125%;font-family:'League Gothic';-inkscape-font-specification:'League Gothic, Normal';text-align:center;writing-mode:lr-tb;text-anchor:middle"
           id="path4230" />
        <path
           d="m 520.63196,526.72638 7.41211,0 0,-3.3252 -4.17481,0 0,-6.06445 3.00293,0 0,-3.54492 -3.00293,0 0,-5.78613 4.17481,0 0,-3.3252 -7.41211,0 0,22.0459 z"
           style="font-style:normal;font-variant:normal;font-weight:normal;font-stretch:normal;font-size:30px;line-height:125%;font-family:'League Gothic';-inkscape-font-specification:'League Gothic, Normal';text-align:center;writing-mode:lr-tb;text-anchor:middle"
           id="path4232" />
        <path
           d="m 533.3175,508.00568 3.06153,0 0,18.7207 3.2373,0 0,-18.7207 3.06153,0 0,-3.3252 -9.36036,0 0,3.3252 z"
           style="font-style:normal;font-variant:normal;font-weight:normal;font-stretch:normal;font-size:30px;line-height:125%;font-family:'League Gothic';-inkscape-font-specification:'League Gothic, Normal';text-align:center;writing-mode:lr-tb;text-anchor:middle"
           id="path4234" />
        <path
           d="m 543.74719,522.20001 q 0.0439,1.4209 0.52735,2.40235 0.43945,0.98144 1.25976,1.61132 0.92285,0.74707 2.51953,0.74707 1.56739,0 2.49024,-0.74707 0.89355,-0.67382 1.30371,-1.61132 0.4834,-0.98145 0.52734,-2.40235 l 0,-12.99316 q -0.0439,-1.3916 -0.52734,-2.37305 -0.42481,-0.98144 -1.30371,-1.64062 -1.01074,-0.76172 -2.49024,-0.76172 -1.50879,0 -2.51953,0.76172 -0.80566,0.61523 -1.25976,1.64062 -0.4834,0.98145 -0.52735,2.37305 l 0,12.99316 z m 3.23731,0 0,-12.99316 q 0,-0.49805 0.11718,-0.80567 0.24903,-0.82031 0.95215,-0.82031 0.42481,0 0.67383,0.24903 0.41016,0.51269 0.41016,1.37695 l 0,12.99316 q 0,0.52735 -0.11719,0.80567 -0.20508,0.80566 -0.9668,0.80566 -0.3955,0 -0.62988,-0.23437 -0.43945,-0.5127 -0.43945,-1.37696 z"
           style="font-style:normal;font-variant:normal;font-weight:normal;font-stretch:normal;font-size:30px;line-height:125%;font-family:'League Gothic';-inkscape-font-specification:'League Gothic, Normal';text-align:center;writing-mode:lr-tb;text-anchor:middle"
           id="path4236" />
        <path
           d="m 559.18665,526.72638 3.00293,0 0,-14.79492 0.17578,0 0.11718,0.9375 2.08008,13.85742 1.37696,0 2.06542,-13.85742 0.11719,-0.9375 0.19043,0 0,14.79492 2.98828,0 0,-22.0459 -3.95507,0 -1.91895,10.07813 -0.14648,1.17187 -0.0586,0 -0.16113,-1.17187 -1.91895,-10.07813 -3.95507,0 0,22.0459 z"
           style="font-style:normal;font-variant:normal;font-weight:normal;font-stretch:normal;font-size:30px;line-height:125%;font-family:'League Gothic';-inkscape-font-specification:'League Gothic, Normal';text-align:center;writing-mode:lr-tb;text-anchor:middle"
           id="path4238" />
        <path
           d="m 572.80969,526.72638 3.16406,0 0.58594,-4.49707 3.12012,0 0.60059,4.49707 3.14941,0 -3.3252,-22.0459 -3.95507,0 -3.33985,22.0459 z m 4.2041,-7.92481 0.9375,-6.958 0.0879,-0.57129 0.17579,0 0.0879,0.57129 0.9375,6.958 -2.22657,0 z"
           style="font-style:normal;font-variant:normal;font-weight:normal;font-stretch:normal;font-size:30px;line-height:125%;font-family:'League Gothic';-inkscape-font-specification:'League Gothic, Normal';text-align:center;writing-mode:lr-tb;text-anchor:middle"
           id="path4240" />
        <path
           d="m 584.9093,526.72638 3.23731,0 0,-7.79297 0.74707,-1.80176 0.19043,-0.4541 0.0879,0 0.0879,0.4541 2.24121,9.59473 3.16406,0 -3.36914,-14.79492 2.97363,-7.25098 -3.14941,0 -2.69531,7.33887 -0.16114,0.36621 -0.11718,0 0,-7.70508 -3.23731,0 0,22.0459 z"
           style="font-style:normal;font-variant:normal;font-weight:normal;font-stretch:normal;font-size:30px;line-height:125%;font-family:'League Gothic';-inkscape-font-specification:'League Gothic, Normal';text-align:center;writing-mode:lr-tb;text-anchor:middle"
           id="path4242" />
        <path
           d="m 596.1593,526.72638 7.41211,0 0,-3.3252 -4.1748,0 0,-6.06445 3.00293,0 0,-3.54492 -3.00293,0 0,-5.78613 4.1748,0 0,-3.3252 -7.41211,0 0,22.0459 z"
           style="font-style:normal;font-variant:normal;font-weight:normal;font-stretch:normal;font-size:30px;line-height:125%;font-family:'League Gothic';-inkscape-font-specification:'League Gothic, Normal';text-align:center;writing-mode:lr-tb;text-anchor:middle"
           id="path4244" />
        <path
           d="m 481.52063,564.22638 3.16406,0 0.58594,-4.49707 3.12012,0 0.60058,4.49707 3.14942,0 -3.3252,-22.0459 -3.95508,0 -3.33984,22.0459 z m 4.2041,-7.92481 0.9375,-6.958 0.0879,-0.57129 0.17578,0 0.0879,0.57129 0.9375,6.958 -2.22656,0 z"
           style="font-style:normal;font-variant:normal;font-weight:normal;font-stretch:normal;font-size:30px;line-height:125%;font-family:'League Gothic';-inkscape-font-specification:'League Gothic, Normal';text-align:center;writing-mode:lr-tb;text-anchor:middle"
           id="path4246" />
        <path
           d="m 493.62024,564.22638 7.5293,0 0,-3.00293 -4.292,0 0,-19.04297 -3.2373,0 0,22.0459 z"
           style="font-style:normal;font-variant:normal;font-weight:normal;font-stretch:normal;font-size:30px;line-height:125%;font-family:'League Gothic';-inkscape-font-specification:'League Gothic, Normal';text-align:center;writing-mode:lr-tb;text-anchor:middle"
           id="path4248" />
        <path
           d="m 502.4679,564.22638 7.52929,0 0,-3.00293 -4.29199,0 0,-19.04297 -3.2373,0 0,22.0459 z"
           style="font-style:normal;font-variant:normal;font-weight:normal;font-stretch:normal;font-size:30px;line-height:125%;font-family:'League Gothic';-inkscape-font-specification:'League Gothic, Normal';text-align:center;writing-mode:lr-tb;text-anchor:middle"
           id="path4250" />
        <path
           d="m 514.80188,545.50568 3.06152,0 0,18.7207 3.23731,0 0,-18.7207 3.06152,0 0,-3.3252 -9.36035,0 0,3.3252 z"
           style="font-style:normal;font-variant:normal;font-weight:normal;font-stretch:normal;font-size:30px;line-height:125%;font-family:'League Gothic';-inkscape-font-specification:'League Gothic, Normal';text-align:center;writing-mode:lr-tb;text-anchor:middle"
           id="path4252" />
        <path
           d="m 525.43665,564.22638 7.4121,0 0,-3.3252 -4.1748,0 0,-6.06445 3.00293,0 0,-3.54492 -3.00293,0 0,-5.78613 4.1748,0 0,-3.3252 -7.4121,0 0,22.0459 z"
           style="font-style:normal;font-variant:normal;font-weight:normal;font-stretch:normal;font-size:30px;line-height:125%;font-family:'League Gothic';-inkscape-font-specification:'League Gothic, Normal';text-align:center;writing-mode:lr-tb;text-anchor:middle"
           id="path4254" />
        <path
           d="m 533.97668,558.04474 q 0,2.97363 0.80567,4.43848 1.08398,1.97753 3.89648,1.97753 2.44629,0 3.57422,-1.66992 0.9375,-1.3916 0.9375,-3.86718 0,-1.56739 -0.9668,-3.45704 -0.60058,-1.17187 -2.06542,-3.35449 -1.37696,-2.00683 -1.74317,-2.65137 -0.80566,-1.3916 -0.80566,-2.35839 0,-2.15332 1.09863,-2.19727 0.70312,0 1.05469,1.02539 0.24902,0.76172 0.24902,2.15332 l 3.17871,-0.29297 q 0,-2.34375 -0.82031,-3.91113 -1.04004,-1.94824 -3.60352,-1.94824 -0.0586,0 -0.11718,0 -2.09473,0.0439 -3.26661,1.68457 -0.95214,1.37695 -0.95214,3.48633 0,0.89355 0.26367,1.75781 0.49804,1.71387 1.59668,3.42773 1.08398,1.68457 2.03613,3.03223 0.43945,0.67383 0.83496,1.31836 0.84961,1.52344 0.84961,2.43164 0,2.43164 -1.33301,2.43164 -0.92285,0 -1.25976,-1.20117 -0.26367,-0.77637 -0.26367,-2.54883 l -3.17872,0.29297 z"
           style="font-style:normal;font-variant:normal;font-weight:normal;font-stretch:normal;font-size:30px;line-height:125%;font-family:'League Gothic';-inkscape-font-specification:'League Gothic, Normal';text-align:center;writing-mode:lr-tb;text-anchor:middle"
           id="path4256" />
        <path
           d="m 543.80579,545.50568 3.06152,0 0,18.7207 3.2373,0 0,-18.7207 3.06153,0 0,-3.3252 -9.36035,0 0,3.3252 z"
           style="font-style:normal;font-variant:normal;font-weight:normal;font-stretch:normal;font-size:30px;line-height:125%;font-family:'League Gothic';-inkscape-font-specification:'League Gothic, Normal';text-align:center;writing-mode:lr-tb;text-anchor:middle"
           id="path4258" />
        <path
           d="m 553.78137,558.04474 q 0,2.97363 0.80567,4.43848 1.08398,1.97753 3.89648,1.97753 2.44629,0 3.57422,-1.66992 0.9375,-1.3916 0.9375,-3.86718 0,-1.56739 -0.9668,-3.45704 -0.60058,-1.17187 -2.06543,-3.35449 -1.37695,-2.00683 -1.74316,-2.65137 -0.80567,-1.3916 -0.80567,-2.35839 0,-2.15332 1.09864,-2.19727 0.70312,0 1.05468,1.02539 0.24903,0.76172 0.24903,2.15332 l 3.17871,-0.29297 q 0,-2.34375 -0.82031,-3.91113 -1.04004,-1.94824 -3.60352,-1.94824 -0.0586,0 -0.11719,0 -2.09472,0.0439 -3.2666,1.68457 -0.95215,1.37695 -0.95215,3.48633 0,0.89355 0.26368,1.75781 0.49804,1.71387 1.59668,3.42773 1.08398,1.68457 2.03613,3.03223 0.43945,0.67383 0.83496,1.31836 0.84961,1.52344 0.84961,2.43164 0,2.43164 -1.33301,2.43164 -0.92285,0 -1.25977,-1.20117 -0.26367,-0.77637 -0.26367,-2.54883 l -3.17871,0.29297 z"
           style="font-style:normal;font-variant:normal;font-weight:normal;font-stretch:normal;font-size:30px;line-height:125%;font-family:'League Gothic';-inkscape-font-specification:'League Gothic, Normal';text-align:center;writing-mode:lr-tb;text-anchor:middle"
           id="path4260" />
        <path
           d="m 569.38196,564.22638 3.2373,0 0,-8.81836 q 2.37305,0 3.89649,-1.43555 1.80175,-1.69922 1.80175,-5.20019 0,-3.51563 -1.80175,-5.21485 -1.4502,-1.37695 -3.89649,-1.37695 l -3.2373,0 0,22.0459 z m 3.2373,-12.11426 0,-6.63574 q 1.4502,0 1.97754,0.77637 0.4541,0.67382 0.4541,2.63672 0,1.93359 -0.4541,2.53418 -0.49805,0.68847 -1.97754,0.68847 z"
           style="font-style:normal;font-variant:normal;font-weight:normal;font-stretch:normal;font-size:30px;line-height:125%;font-family:'League Gothic';-inkscape-font-specification:'League Gothic, Normal';text-align:center;writing-mode:lr-tb;text-anchor:middle"
           id="path4262" />
        <path
           d="m 579.02063,564.22638 3.16406,0 0.58594,-4.49707 3.12012,0 0.60058,4.49707 3.14942,0 -3.3252,-22.0459 -3.95508,0 -3.33984,22.0459 z m 4.2041,-7.92481 0.9375,-6.958 0.0879,-0.57129 0.17578,0 0.0879,0.57129 0.9375,6.958 -2.22656,0 z"
           style="font-style:normal;font-variant:normal;font-weight:normal;font-stretch:normal;font-size:30px;line-height:125%;font-family:'League Gothic';-inkscape-font-specification:'League Gothic, Normal';text-align:center;writing-mode:lr-tb;text-anchor:middle"
           id="path4264" />
        <path
           d="m 590.16809,558.04474 q 0,2.97363 0.80566,4.43848 1.08399,1.97753 3.89649,1.97753 2.44629,0 3.57422,-1.66992 0.9375,-1.3916 0.9375,-3.86718 0,-1.56739 -0.9668,-3.45704 -0.60058,-1.17187 -2.06543,-3.35449 -1.37695,-2.00683 -1.74316,-2.65137 -0.80567,-1.3916 -0.80567,-2.35839 0,-2.15332 1.09864,-2.19727 0.70312,0 1.05468,1.02539 0.24903,0.76172 0.24903,2.15332 l 3.17871,-0.29297 q 0,-2.34375 -0.82031,-3.91113 -1.04004,-1.94824 -3.60352,-1.94824 -0.0586,0 -0.11719,0 -2.09472,0.0439 -3.2666,1.68457 -0.95215,1.37695 -0.95215,3.48633 0,0.89355 0.26367,1.75781 0.49805,1.71387 1.59668,3.42773 1.08399,1.68457 2.03614,3.03223 0.43945,0.67383 0.83496,1.31836 0.84961,1.52344 0.84961,2.43164 0,2.43164 -1.33301,2.43164 -0.92285,0 -1.25977,-1.20117 -0.26367,-0.77637 -0.26367,-2.54883 l -3.17871,0.29297 z"
           style="font-style:normal;font-variant:normal;font-weight:normal;font-stretch:normal;font-size:30px;line-height:125%;font-family:'League Gothic';-inkscape-font-specification:'League Gothic, Normal';text-align:center;writing-mode:lr-tb;text-anchor:middle"
           id="path4266" />
        <path
           d="m 600.48059,558.04474 q 0,2.97363 0.80566,4.43848 1.08399,1.97753 3.89649,1.97753 2.44629,0 3.57422,-1.66992 0.9375,-1.3916 0.9375,-3.86718 0,-1.56739 -0.9668,-3.45704 -0.60058,-1.17187 -2.06543,-3.35449 -1.37695,-2.00683 -1.74316,-2.65137 -0.80567,-1.3916 -0.80567,-2.35839 0,-2.15332 1.09864,-2.19727 0.70312,0 1.05468,1.02539 0.24903,0.76172 0.24903,2.15332 l 3.17871,-0.29297 q 0,-2.34375 -0.82031,-3.91113 -1.04004,-1.94824 -3.60352,-1.94824 -0.0586,0 -0.11719,0 -2.09472,0.0439 -3.2666,1.68457 -0.95215,1.37695 -0.95215,3.48633 0,0.89355 0.26367,1.75781 0.49805,1.71387 1.59668,3.42773 1.08399,1.68457 2.03614,3.03223 0.43945,0.67383 0.83496,1.31836 0.84961,1.52344 0.84961,2.43164 0,2.43164 -1.33301,2.43164 -0.92285,0 -1.25977,-1.20117 -0.26367,-0.77637 -0.26367,-2.54883 l -3.17871,0.29297 z"
           style="font-style:normal;font-variant:normal;font-weight:normal;font-stretch:normal;font-size:30px;line-height:125%;font-family:'League Gothic';-inkscape-font-specification:'League Gothic, Normal';text-align:center;writing-mode:lr-tb;text-anchor:middle"
           id="path4268" />
      </g>
    </g>
  </g>
</svg>
